<?xml version="1.0" encoding="UTF-8"?>
<svg width="60px" height="60px" viewBox="0 0 60 60" version="1.1" xmlns="http://www.w3.org/2000/svg" xmlns:xlink="http://www.w3.org/1999/xlink">
    <!-- Generator: Sketch 42 (36781) - http://www.bohemiancoding.com/sketch -->
    <title>Square/Android</title>
    <desc>Created with Sketch.</desc>
    <defs>
        <path d="M16.3131693,46.1342424 C16.3131693,46.5256566 15.9966346,46.8460606 15.6097255,46.8460606 L14.4365205,46.8460606 C14.0496114,46.8460606 13.7330766,46.5256566 13.7330766,46.1342424 L13.7330766,44.9469697 C13.7330766,44.5555556 14.0496114,44.2351515 14.4365205,44.2351515 L15.6097255,44.2351515 C15.9966346,44.2351515 16.3131693,44.5555556 16.3131693,44.9469697 L16.3131693,46.1342424 Z" id="path-1"></path>
        <mask id="mask-2" maskContentUnits="userSpaceOnUse" maskUnits="objectBoundingBox" x="0" y="0" width="2.58009269" height="2.61090909" fill="white">
            <use xlink:href="#path-1"></use>
        </mask>
        <mask id="mask-3" maskContentUnits="userSpaceOnUse" maskUnits="objectBoundingBox" x="-1" y="-1" width="4.58009269" height="4.61090909">
            <rect x="12.7330766" y="43.2351515" width="4.58009269" height="4.61090909" fill="white"></rect>
            <use xlink:href="#path-1" fill="black"></use>
        </mask>
        <path d="M26.568057,0.788989899 C19.368713,-0.174343434 10.6277219,-0.174343434 3.42827807,0.788989899 C1.56560428,1.04505051 0.0498110517,2.86959596 0.0498110517,4.74909091 L0.0498110517,45.2510101 C0.0498110517,47.1305051 1.56560428,48.9549495 3.42827807,49.2110101 C10.6277219,50.1744444 19.3686132,50.1744444 26.568057,49.2110101 C28.4307308,48.9549495 29.9465241,47.1305051 29.9465241,45.2510101 L29.9465241,4.74909091 C29.9465241,2.86959596 28.4307308,1.04505051 26.568057,0.788989899 Z M8.54304456,45.690202 L4.45035294,45.690202 C4.18842068,45.690202 3.97619964,45.4640404 3.97619964,45.1851515 C3.97619964,44.9062626 4.18842068,44.680101 4.45035294,44.680101 L8.54304456,44.680101 C8.80497683,44.680101 9.01719786,44.9062626 9.01719786,45.1851515 C9.01719786,45.4640404 8.80497683,45.690202 8.54304456,45.690202 Z M17.0986667,46.4955556 C17.0986667,47.1254545 16.5892763,47.6409091 15.9667879,47.6409091 L14.0793583,47.6409091 C13.4568699,47.6409091 12.9475793,47.1254545 12.9475793,46.4955556 L12.9475793,44.5856566 C12.9475793,43.9557576 13.4569697,43.440303 14.0793583,43.440303 L15.9667879,43.440303 C16.5892763,43.440303 17.0986667,43.9557576 17.0986667,44.5856566 L17.0986667,46.4955556 Z M25.5128414,45.690202 L21.4201497,45.690202 C21.1582175,45.690202 20.9459964,45.4640404 20.9459964,45.1851515 C20.9459964,44.9062626 21.1582175,44.680101 21.4201497,44.680101 L25.5128414,44.680101 C25.7746738,44.680101 25.9869947,44.9062626 25.9869947,45.1851515 C25.9869947,45.4640404 25.7746738,45.690202 25.5128414,45.690202 Z M27.0111658,41.639899 L2.98526916,41.639899 L2.98526916,4.33252525 L27.0111658,4.33252525 L27.0111658,41.639899 Z" id="path-4"></path>
        <mask id="mask-5" maskContentUnits="userSpaceOnUse" maskUnits="objectBoundingBox" x="0" y="0" width="29.896713" height="49.867096" fill="white">
            <use xlink:href="#path-4"></use>
        </mask>
        <mask id="mask-6" maskContentUnits="userSpaceOnUse" maskUnits="objectBoundingBox" x="-1" y="-1" width="31.896713" height="51.867096">
            <rect x="-0.950188948" y="-0.933510101" width="31.896713" height="51.867096" fill="white"></rect>
            <use xlink:href="#path-4" fill="black"></use>
        </mask>
        <path d="M10.1886061,17.6291919 L8.39141533,17.6291919 L8.39141533,20.3920202 L8.39141533,20.3920202 C8.39141533,21.2731313 7.78479857,21.9939394 7.04352228,21.9939394 C6.30214617,21.9939394 5.69562923,21.2730303 5.69562923,20.3920202 L5.69562923,17.6291919 L4.81570053,17.6291919 C3.98548307,17.6291919 3.29960784,17.029798 3.23771836,16.2753535 L3.23262745,16.2753535 L3.23262745,7.34383838 L3.23262745,7.34383838 L15.2743244,7.34383838 L15.2743244,16.2753535 L15.2692335,16.2753535 C15.2072442,17.029697 14.521369,17.6291919 13.6911515,17.6291919 L12.8845918,17.6291919 L12.8845918,20.3920202 C12.8845918,21.2731313 12.277975,21.9939394 11.5365989,21.9939394 C10.7952228,21.9939394 10.1886061,21.2730303 10.1886061,20.3920202 L10.1886061,17.6291919 Z M2.77344742,13.8854545 C2.77344742,14.7664646 2.16693048,15.4872727 1.42565419,15.4872727 C0.684278075,15.4872727 0.0776613191,14.7663636 0.0776613191,13.8854545 L0.0776613191,8.64272727 C0.0776613191,7.76161616 0.684278075,7.04080808 1.42565419,7.04080808 C2.16693048,7.04080808 2.77344742,7.76161616 2.77344742,8.64272727 L2.77344742,13.8854545 Z M18.4892834,13.8854545 C18.4892834,14.7664646 17.8827665,15.4872727 17.1413904,15.4872727 C16.4001141,15.4872727 15.7933975,14.7663636 15.7933975,13.8854545 L15.7933975,8.64272727 C15.7933975,7.76161616 16.4001141,7.04080808 17.1413904,7.04080808 C17.8827665,7.04080808 18.4892834,7.76161616 18.4892834,8.64272727 L18.4892834,13.8854545 Z" id="path-7"></path>
        <mask id="mask-8" maskContentUnits="userSpaceOnUse" maskUnits="objectBoundingBox" x="0" y="0" width="18.4116221" height="14.9531313" fill="white">
            <use xlink:href="#path-7"></use>
        </mask>
        <mask id="mask-9" maskContentUnits="userSpaceOnUse" maskUnits="objectBoundingBox" x="-1" y="-1" width="20.4116221" height="16.9531313">
            <rect x="-0.922338681" y="6.04080808" width="20.4116221" height="16.9531313" fill="white"></rect>
            <use xlink:href="#path-7" fill="black"></use>
        </mask>
        <path d="M12.2303601,1.97292929 L13.0953155,0.402626263 C13.1658895,0.274343434 13.1451266,0.125050505 13.049098,0.0709090909 C12.9529697,0.0167676768 12.8165134,0.0773737374 12.7459394,0.205656566 L11.8610196,1.81232323 C11.0721283,1.49818182 10.1876078,1.32212121 9.25347594,1.32212121 C8.31225668,1.32212121 7.42164706,1.50090909 6.62806417,1.81959596 L5.73925134,0.205656566 C5.66867736,0.0773737374 5.53222103,0.0167676768 5.43619251,0.0709090909 C5.34016399,0.125050505 5.31940107,0.274343434 5.38997504,0.402626263 L6.25922282,1.98090909 C4.45085205,2.84020202 3.23272727,4.4540404 3.23272727,6.30323232 C3.23272727,6.49111111 3.24580392,6.67646465 3.27026025,6.85888889 L15.2367914,6.85888889 C15.2612478,6.67646465 15.2743244,6.49111111 15.2743244,6.30323232 C15.2743244,4.44818182 14.0483137,2.83020202 12.2303601,1.97292929 Z M6.52115508,4.71393939 C6.23027451,4.71393939 5.99459537,4.47545455 5.99459537,4.18111111 C5.99459537,3.88686869 6.23027451,3.64828283 6.52115508,3.64828283 C6.81193583,3.64828283 7.0477148,3.88686869 7.0477148,4.18111111 C7.0477148,4.47545455 6.81193583,4.71393939 6.52115508,4.71393939 Z M12.0156435,4.71393939 C11.7247629,4.71393939 11.4890838,4.47545455 11.4890838,4.18111111 C11.4890838,3.88686869 11.7247629,3.64828283 12.0156435,3.64828283 C12.3064242,3.64828283 12.5422032,3.88686869 12.5422032,4.18111111 C12.5422032,4.47545455 12.3064242,4.71393939 12.0156435,4.71393939 Z" id="path-10"></path>
        <mask id="mask-11" maskContentUnits="userSpaceOnUse" maskUnits="objectBoundingBox" x="0" y="0" width="12.0415971" height="6.8078068" fill="white">
            <use xlink:href="#path-10"></use>
        </mask>
        <mask id="mask-12" maskContentUnits="userSpaceOnUse" maskUnits="objectBoundingBox" x="-1" y="-1" width="14.0415971" height="8.8078068">
            <rect x="2.23272727" y="-0.948917912" width="14.0415971" height="8.8078068" fill="white"></rect>
            <use xlink:href="#path-10" fill="black"></use>
        </mask>
    </defs>
    <g id="Symbols" stroke="none" stroke-width="1" fill="none" fill-rule="evenodd">
        <g id="Square/Android">
            <g id="Icon/Android" transform="translate(15.000000, 5.000000)">
                <g id="1489609057_Android_Device">
                    <g id="Layer_1" fill-rule="nonzero" stroke-width="2">
                        <g id="Shape">
                            <use stroke="#000000" mask="url(#mask-2)" fill="#4F4F4F" fill-rule="evenodd" xlink:href="#path-1"></use>
                            <use stroke="#FFFFFF" mask="url(#mask-3)" xlink:href="#path-1"></use>
                        </g>
                        <g id="Shape">
                            <use stroke="#000000" mask="url(#mask-5)" fill="#4F4F4F" fill-rule="evenodd" xlink:href="#path-4"></use>
                            <use stroke="#FFFFFF" mask="url(#mask-6)" xlink:href="#path-4"></use>
                        </g>
                        <g id="Group" transform="translate(5.689840, 12.626263)">
                            <g id="Combined-Shape">
                                <use stroke="#000000" mask="url(#mask-8)" fill="#4F4F4F" fill-rule="evenodd" xlink:href="#path-7"></use>
                                <use stroke="#FFFFFF" mask="url(#mask-9)" xlink:href="#path-7"></use>
                            </g>
                            <g id="Shape">
                                <use stroke="#000000" mask="url(#mask-11)" fill="#4F4F4F" fill-rule="evenodd" xlink:href="#path-10"></use>
                                <use stroke="#FFFFFF" mask="url(#mask-12)" xlink:href="#path-10"></use>
                            </g>
                        </g>
                    </g>
                </g>
            </g>
        </g>
    </g>
</svg>