<?xml version="1.0" encoding="UTF-8"?>
<svg width="60px" height="60px" viewBox="0 0 60 60" version="1.1" xmlns="http://www.w3.org/2000/svg" xmlns:xlink="http://www.w3.org/1999/xlink">
    <!-- Generator: Sketch 42 (36781) - http://www.bohemiancoding.com/sketch -->
    <title>Square/Apple Watch</title>
    <desc>Created with Sketch.</desc>
    <defs>
        <path d="M21.8205128,16.6219512 L22.1153846,16.6219512 C22.6039442,16.6219512 23,17.0213241 23,17.5123874 L23,19.7437102 C23,20.2354845 22.6073503,20.6341463 22.1153846,20.6341463 L21.8205128,20.6341463 L21.8205128,31.3365099 C21.8205128,33.972701 19.6885404,36.1097561 17.0319087,36.1097561 L4.78860414,36.1097561 C2.1439311,36.1097561 0,33.9595547 0,31.3365099 L0,15.6634901 C0,13.027299 2.13197237,10.8902439 4.78860414,10.8902439 L17.0319087,10.8902439 C19.6765817,10.8902439 21.8205128,13.0404453 21.8205128,15.6634901 L21.8205128,16.6219512 Z M17.1025641,1.14634146 C17.1025641,6.87804878 18.8717949,10.3170732 18.8717949,10.3170732 L2.94871795,10.3170732 C2.94871795,10.3170732 4.71794872,6.87790758 4.71794872,1.14634146 L4.71794872,1.14525321 C4.71794872,0.51274733 5.25010016,0 5.89422855,0 L15.9262843,0 C16.5759257,0 17.1025641,0.508234129 17.1025641,1.14525321 L17.1025641,1.14634146 L17.1025641,1.14634146 Z M17.1025641,45.8536585 L17.1025641,45.8536585 L17.1025641,45.8547468 C17.1025641,46.4917659 16.5759257,47 15.9262843,47 L5.89422855,47 C5.25010016,47 4.71794872,46.4872527 4.71794872,45.8547468 L4.71794872,45.8536585 C4.71794872,40.1220924 2.94871795,36.6829268 2.94871795,36.6829268 L18.8717949,36.6829268 C18.8717949,36.6829268 17.1025641,40.1219512 17.1025641,45.8536585 Z M1.44159544,15.7579471 L1.44159544,31.2420529 C1.44159544,33.1212292 2.96717845,34.6546358 4.84908047,34.6546358 L16.9714324,34.6546358 C18.8452379,34.6546358 20.3789174,33.1267704 20.3789174,31.2420529 L20.3789174,15.7579471 C20.3789174,13.8787708 18.8533344,12.3453642 16.9714324,12.3453642 L4.84908047,12.3453642 C2.97527489,12.3453642 1.44159544,13.8732296 1.44159544,15.7579471 Z" id="path-1"></path>
        <mask id="mask-2" maskContentUnits="userSpaceOnUse" maskUnits="objectBoundingBox" x="0" y="0" width="23" height="47" fill="white">
            <use xlink:href="#path-1"></use>
        </mask>
        <mask id="mask-3" maskContentUnits="userSpaceOnUse" maskUnits="objectBoundingBox" x="-0.682926829" y="-0.682926829" width="24.3658537" height="48.3658537">
            <rect x="-0.682926829" y="-0.682926829" width="24.3658537" height="48.3658537" fill="white"></rect>
            <use xlink:href="#path-1" fill="black"></use>
        </mask>
    </defs>
    <g id="Symbols" stroke="none" stroke-width="1" fill="none" fill-rule="evenodd">
        <g id="Square/Apple-Watch" stroke-width="1.36585366">
            <g id="Icon/Apple-Watch" transform="translate(19.000000, 7.000000)">
                <g id="Apple-Watch">
                    <use stroke="#000000" mask="url(#mask-2)" fill="#4F4F4F" fill-rule="evenodd" xlink:href="#path-1"></use>
                    <use stroke="#FFFFFF" mask="url(#mask-3)" xlink:href="#path-1"></use>
                </g>
            </g>
        </g>
    </g>
</svg>