<?xml version="1.0" encoding="UTF-8"?>
<svg width="34px" height="29px" viewBox="0 0 34 29" version="1.1" xmlns="http://www.w3.org/2000/svg" xmlns:xlink="http://www.w3.org/1999/xlink">
    <!-- Generator: Sketch 42 (36781) - http://www.bohemiancoding.com/sketch -->
    <title>social/twitter</title>
    <desc>Created with Sketch.</desc>
    <defs>
        <path d="M17.594916,13.3141516 L16.4026999,13.1632081 C12.0630338,12.5845912 8.2717869,10.6223256 5.0528037,7.32672555 L3.47907855,5.69150415 L3.07372515,6.89905215 C2.2153296,9.5908782 2.76374895,12.4336477 4.55207295,14.3455989 C5.5058457,15.4022035 5.29124685,15.553147 3.6459888,14.9242158 C3.07372515,14.7229576 2.5729944,14.5720141 2.52530565,14.647486 C2.35839555,14.8235868 2.9306592,17.1128967 3.3837012,18.0185578 C4.0036536,19.2764205 5.26740255,20.5091257 6.650373,21.2386861 L7.81874475,21.8173029 L6.43577415,21.8424601 C5.1004923,21.8424601 5.0528037,21.8676174 5.19586965,22.3959196 C5.6727561,24.0311412 7.5564573,25.7669916 9.6547575,26.5217091 L11.1331051,27.0500115 L9.8455119,27.8550435 C7.9379664,29.0122771 5.69660025,29.6663658 3.45523425,29.7166803 C2.38223985,29.7418374 1.5,29.8424664 1.5,29.9179383 C1.5,30.1695106 4.409007,31.5783169 6.1019538,32.1317764 C11.1807939,33.7669978 17.2134069,33.0625947 21.7438277,30.2701398 C24.9628109,28.2827167 28.1817942,24.3330282 29.6839863,20.5091257 C30.4946931,18.4713883 31.3054001,14.748115 31.3054001,12.96195 C31.3054001,11.8047165 31.376933,11.653773 32.7122148,10.2701241 C33.4990775,9.46509195 34.2382513,8.5845882 34.3813173,8.33301555 C34.6197605,7.8550278 34.5959163,7.8550278 33.379856,8.28270105 C31.3530887,9.0374187 31.0669567,8.9367897 32.0684183,7.8047133 C32.8075921,6.99968115 33.689832,5.54056065 33.689832,5.11288725 C33.689832,5.0374155 33.3321672,5.1632019 32.9268138,5.389617 C32.4976159,5.64118965 31.5438432,6.0185484 30.8285136,6.24496365 L29.5409204,6.6726369 L28.3725486,5.8424475 C27.7287519,5.389617 26.8226679,4.886472 26.3457815,4.7355285 C25.1297211,4.383327 23.2698642,4.4336415 22.1730253,4.8361575 C19.1924854,5.9682339 17.3087841,8.8864752 17.5233831,12.0814462 L17.594916,13.3141516 Z" id="path-1"></path>
    </defs>
    <g id="Page-1" stroke="none" stroke-width="1" fill="none" fill-rule="evenodd">
        <g id="2.-Detail" transform="translate(-906.000000, -96.000000)">
            <g id="social/twitter" transform="translate(905.000000, 92.000000)">
                <mask id="mask-2" fill="white">
                    <use xlink:href="#path-1"></use>
                </mask>
                <g id="Mask"></g>
                <g id="Color/SemiWhite" mask="url(#mask-2)" fill-rule="evenodd" fill="#FFFFFF" fill-opacity="0.5">
                    <rect id="Background" x="0" y="0" width="36" height="36"></rect>
                </g>
            </g>
        </g>
    </g>
</svg>